HIERARCHY
ROOT Hips
{
     OFFSET 16.80050 96.77860 13.39480
     CHANNELS 6 Xposition Yposition Zposition Zrotation Xrotation Yrotation
     JOINT Spine
     {
          OFFSET -0.00000 11.89050 -0.00000
          CHANNELS 3 Zrotation Xrotation Yrotation
          JOINT Spine1
          {
               OFFSET -0.00000 25.65740 0.12766
               CHANNELS 3 Zrotation Xrotation Yrotation
               JOINT HEad
               {
                    OFFSET -0.00000 8.73416 0.01134
                    CHANNELS 3 Zrotation Xrotation Yrotation
                    End Site
                    {
                         OFFSET -0.29000 12.77420 2.51395
                    }
               }
               JOINT LeftShoulder1
               {
                    OFFSET 8.99000 -0.36225 -0.22000
                    CHANNELS 3 Zrotation Xrotation Yrotation
                    JOINT LeftArm
                    {
                         OFFSET 10.28270 -0.00338 0.32212
                         CHANNELS 3 Zrotation Xrotation Yrotation
                         JOINT LeftForeArm
                         {
                              OFFSET 32.76690 0.09914 -1.42434
                              CHANNELS 3 Zrotation Xrotation Yrotation
                              JOINT LeftHand
                              {
                                   OFFSET 27.56430 0.08536 1.02216
                                   CHANNELS 3 Zrotation Xrotation Yrotation
                                   End Site
                                   {
                                        OFFSET 16.74430 -0.60000 1.50291
                                   }
                              }
                         }
                    }
               }
               JOINT RightShoulder
               {
                    OFFSET -8.99000 -0.36225 -0.22000
                    CHANNELS 3 Zrotation Xrotation Yrotation
                    JOINT RightArm
                    {
                         OFFSET -10.28270 -0.00338 0.32212
                         CHANNELS 3 Zrotation Xrotation Yrotation
                         JOINT RightForeArm
                         {
                              OFFSET -32.89710 0.09914 -1.42434
                              CHANNELS 3 Zrotation Xrotation Yrotation
                              JOINT RightHand
                              {
                                   OFFSET -27.49210 0.08536 1.02216
                                   CHANNELS 3 Zrotation Xrotation Yrotation
                                   End Site
                                   {
                                        OFFSET -16.63120 -0.60000 1.50291
                                   }
                              }
                         }
                    }
               }
          }
     }
     JOINT LeftUpLeg
     {
          OFFSET 8.94580 -8.66707 0.10165
          CHANNELS 3 Zrotation Xrotation Yrotation
          JOINT LeftLeg
          {
               OFFSET 0.00000 -44.42270 1.37270
               CHANNELS 3 Zrotation Xrotation Yrotation
               JOINT LeftFoot
               {
                    OFFSET -0.25355 -42.09240 -1.46059
                    CHANNELS 3 Zrotation Xrotation Yrotation
                    JOINT LeftToes
                    {
                         OFFSET -0.04000 -4.41509 8.49910
                         CHANNELS 3 Zrotation Xrotation Yrotation
                         End Site
                         {
                              OFFSET 0.08000 -0.04745 9.77979
                         }
                    }
               }
          }
     }
     JOINT RightUpLeg
     {
          OFFSET -8.94580 -8.66707 0.10165
          CHANNELS 3 Zrotation Xrotation Yrotation
          JOINT RightLeg
          {
               OFFSET -0.00000 -44.42270 1.37270
               CHANNELS 3 Zrotation Xrotation Yrotation
               JOINT RightFoot
               {
                    OFFSET 0.25355 -42.09240 -1.46059
                    CHANNELS 3 Zrotation Xrotation Yrotation
                    JOINT RightToes
                    {
                         OFFSET 0.04000 -4.41509 8.49910
                         CHANNELS 3 Zrotation Xrotation Yrotation
                         End Site
                         {
                              OFFSET -0.08000 -0.13745 9.77979
                         }
                    }
               }
          }
     }
}
MOTION
Frames: 17
Frame Time: 0.01667
16.80050 96.77860 13.39480 -8.16482 -7.08799 -33.23330 -4.80147 10.26360 -0.78301 -1.69548 20.17690 -2.73666 -3.22107 3.02225 12.72170 -0.00000 -0.00000 0.00000 -103.01100 -60.17220 -83.37980 -44.84300 46.60100 -70.16650 13.65530 7.92264 -13.17940 18.95790 0.58103 0.28940 73.98650 -8.82096 64.66540 14.31370 30.53640 94.73170 17.37560 11.76430 7.54533 16.42330 -4.42457 -11.82200 -22.64830 11.70410 66.39340 -0.46793 6.36140 0.00331 2.35844 -28.50320 -65.30200 -28.87160 10.70830 19.76310 33.69270 -0.51306 -20.37760 -28.23640 16.43320 6.02255 4.83533 -41.58530 4.99487 
16.74300 96.97510 13.37180 -8.34128 -7.04835 -32.44390 -4.21993 10.30340 -0.91606 -1.61376 20.29390 -2.74975 -3.42046 3.01242 12.82380 -0.00000 -0.00000 0.00000 -102.56500 -59.81860 -83.16710 -44.61380 46.33390 -70.27160 13.75310 7.90205 -13.22680 18.73350 0.58429 0.32518 74.21580 -8.96051 64.76630 14.32680 30.55790 94.69570 17.17900 11.74620 7.56075 16.67520 -4.25858 -12.24650 -22.46080 10.99220 66.14570 -0.51167 6.86493 0.00785 2.48062 -28.11140 -65.91530 -28.56590 10.52840 19.49870 33.98610 0.24748 -20.61000 -27.74760 17.27220 6.12575 4.93469 -41.84170 5.23143 
16.68890 97.22060 13.32120 -8.60679 -6.98326 -31.53310 -3.35774 10.32170 -1.11537 -1.50850 20.40200 -2.75844 -3.61254 3.12904 12.90180 -0.00000 -0.00000 0.00000 -101.74300 -59.40060 -82.58980 -44.18820 45.96580 -70.63070 13.75970 7.90965 -13.15240 18.51260 0.58149 0.33225 74.45310 -9.07702 64.80920 14.30530 30.60630 94.69450 16.93050 11.72490 7.59098 17.06530 -3.97052 -12.69210 -22.25340 9.98997 65.72520 -0.34530 7.34870 -0.01463 2.63572 -27.66180 -66.47130 -28.13150 10.26500 19.07480 34.30070 1.18503 -20.81720 -27.34990 18.58850 6.36252 5.19643 -42.47370 5.85439 
16.57960 97.38170 13.19160 -8.76105 -7.00740 -30.55100 -2.69034 10.33500 -1.27740 -1.43418 20.48680 -2.75686 -3.71060 3.35072 12.98560 -0.00000 -0.00000 0.00000 -100.76800 -59.04250 -81.82880 -43.72650 45.62860 -71.07600 13.69850 7.93366 -13.02600 18.38190 0.57805 0.32784 74.60630 -9.17267 64.77760 14.28090 30.67140 94.72740 16.65720 11.69820 7.60353 17.35390 -3.81838 -13.04910 -22.08700 9.22747 65.15070 -0.06607 7.69896 -0.05299 2.77921 -27.26560 -66.91140 -27.61820 9.32140 18.37270 34.66930 3.47657 -21.29650 -27.02850 19.78150 6.57929 5.62232 -43.44900 6.82661 
16.40560 97.45900 12.98260 -8.77679 -7.15202 -29.48830 -2.28295 10.35500 -1.39045 -1.47184 20.56630 -2.75463 -3.64988 3.57259 13.09220 -0.00000 -0.00000 0.00000 -99.84880 -58.83100 -81.07960 -43.33360 45.44430 -71.47040 13.63120 7.95691 -12.91300 18.36380 0.57465 0.31309 74.64890 -9.23126 64.69390 14.28120 30.74260 94.79850 16.39840 11.66320 7.55025 17.50070 -3.76766 -13.31080 -21.95650 8.67836 64.41890 0.36081 7.96500 -0.11244 2.89078 -26.96080 -67.26910 -27.05740 7.59227 17.42650 35.18700 7.35954 -22.19960 -26.99680 20.59650 6.77246 6.24394 -44.75390 8.17804 
16.18500 97.51480 12.71400 -8.76798 -7.37229 -28.27510 -1.87928 10.38060 -1.52314 -1.53493 20.66060 -2.78012 -3.47759 3.68883 13.22050 -0.00000 -0.00000 0.00000 -99.17170 -58.81530 -80.52250 -43.07100 45.51420 -71.72990 13.62260 7.96846 -12.82340 18.39540 0.57261 0.30030 74.64030 -9.25249 64.59730 14.36700 30.81930 94.88080 16.23190 11.62390 7.40163 17.63690 -3.70951 -13.52470 -21.82260 8.12769 63.56170 0.90206 8.32949 -0.19104 2.94893 -26.77520 -67.69720 -26.55250 6.01979 16.55100 35.72000 10.97530 -23.18940 -27.73130 21.74220 7.25453 7.13956 -46.39840 10.03490 
15.90790 97.54820 12.38510 -8.73058 -7.68590 -26.87420 -1.49178 10.42070 -1.68095 -1.60131 20.78570 -2.85091 -3.34239 3.66312 13.36900 -0.00000 -0.00000 0.00000 -98.82700 -58.99660 -80.23890 -42.94540 45.87740 -71.84130 13.69730 7.96704 -12.73770 18.39100 0.57377 0.30632 74.64890 -9.24865 64.51370 14.57480 30.89710 94.93040 16.21540 11.59360 7.20781 17.74920 -3.67931 -13.72160 -21.66880 7.64022 62.70240 1.34941 8.95374 -0.26429 2.91013 -26.78540 -68.35770 -26.07310 4.69833 15.78720 36.15680 14.27320 -24.20270 -28.97740 22.98000 7.92261 8.30986 -48.14290 12.40000 
15.56740 97.55590 12.00200 -8.64175 -8.09886 -25.27610 -1.11600 10.46640 -1.85609 -1.67127 20.92820 -2.94359 -3.33593 3.53427 13.55330 -0.00000 -0.00000 0.00000 -98.76470 -59.31310 -80.16640 -42.91650 46.48890 -71.84870 13.82470 7.95839 -12.64730 18.33480 0.57099 0.29805 74.66320 -9.22730 64.44110 14.84990 30.97350 94.95320 16.30320 11.57960 7.05376 17.81770 -3.68842 -13.94520 -21.49760 7.21067 61.92310 1.67544 9.91269 -0.33105 2.72282 -27.09250 -69.26850 -25.60610 3.64197 15.20300 36.43650 17.30280 -25.09990 -30.23780 23.89860 8.53726 9.55216 -49.49820 14.96130 
15.16300 97.52890 11.57140 -8.46163 -8.60111 -23.49190 -0.75416 10.49660 -2.02743 -1.76117 21.05100 -3.00772 -3.43269 3.39027 13.83650 -0.00000 -0.00000 0.00000 -98.79770 -59.65780 -80.10550 -42.91980 47.22690 -71.83580 13.94220 7.95143 -12.55670 18.28140 0.55033 0.20265 74.61130 -9.19959 64.34950 15.09470 31.05960 95.01630 16.38660 11.57520 6.96811 17.80040 -3.74128 -14.19630 -21.29690 6.81310 61.20920 2.04334 11.17530 -0.41718 2.32866 -27.80450 -70.34100 -25.16980 2.81914 14.88270 36.57230 20.10650 -25.77920 -31.09540 24.10700 8.84974 10.54350 -50.09750 17.22550 
14.70280 97.45240 11.09590 -8.15585 -9.17195 -21.55310 -0.43385 10.49640 -2.17291 -1.88376 21.12450 -3.00575 -3.58681 3.30056 14.32880 -0.00000 -0.00000 0.00000 -98.63660 -59.93930 -79.77540 -42.84490 47.92250 -71.93420 14.01190 7.95047 -12.47680 18.26140 0.50796 -0.00159 74.46310 -9.18271 64.20910 15.25590 31.15990 95.17730 16.41030 11.56990 6.91655 17.64030 -3.86588 -14.44280 -21.03140 6.48819 60.52240 2.60374 12.65120 -0.55111 1.68564 -28.97160 -71.50750 -24.80730 2.20231 14.90770 36.63070 22.64620 -26.22420 -31.41570 23.41060 8.74327 11.04580 -49.88630 18.79460 
14.20230 97.30800 10.57700 -7.71751 -9.79757 -19.50060 -0.17959 10.46710 -2.28460 -2.03288 21.14720 -2.93469 -3.77050 3.25566 15.09860 -0.00000 -0.00000 0.00000 -98.07830 -60.15080 -78.98750 -42.62760 48.45420 -72.22490 14.04990 7.95137 -12.42150 18.23480 0.45676 -0.24866 74.26290 -9.19431 64.01970 15.34880 31.25880 95.43340 16.39600 11.55830 6.84829 17.31020 -4.10958 -14.76030 -20.71950 6.31831 59.91740 3.35169 14.18740 -0.73712 0.82532 -30.47940 -72.73680 -24.55500 1.78892 15.30690 36.67920 24.86450 -26.39590 -31.26590 21.84770 8.25014 11.00410 -49.03030 19.47780 
13.67960 97.04240 10.03760 -7.14846 -10.47830 -17.34820 0.00031 10.41940 -2.37975 -2.18473 21.13820 -2.80677 -3.95472 3.18072 16.10710 -0.00000 -0.00000 0.00000 -97.21370 -60.37870 -77.80560 -42.40790 48.83150 -72.60470 14.07760 7.95045 -12.39490 18.11680 0.41130 -0.46299 74.08370 -9.24347 63.81570 15.42030 31.34340 95.74050 16.37030 11.53920 6.73649 16.72360 -4.88024 -15.26250 -20.49390 7.14321 59.51400 3.81501 15.39090 -0.87230 -0.15709 -32.10590 -73.99930 -24.43150 1.55975 16.01480 36.76390 26.86140 -26.21420 -30.75950 19.60590 7.47840 10.55520 -47.85480 19.31700 
13.13120 96.66760 9.46760 -6.44623 -11.20850 -15.13350 0.10777 10.37360 -2.44671 -2.31779 21.13120 -2.61971 -4.14423 2.98735 17.28380 -0.00000 -0.00000 0.00000 -96.35010 -60.73350 -76.48270 -42.42250 49.14810 -72.88960 14.07880 7.95150 -12.38440 17.80650 0.37495 -0.62472 74.01780 -9.32121 63.66820 15.50730 31.42760 96.04270 16.32710 11.51460 6.59898 15.92240 -6.03509 -16.02170 -20.40410 8.67859 59.33230 4.00756 16.27660 -0.94712 -1.17512 -33.68410 -75.25190 -24.43070 1.56484 16.92220 36.79380 28.54860 -25.63910 -30.31440 17.29150 6.72448 10.15800 -47.15340 18.81560 
12.53930 96.19590 8.85424 -5.60085 -11.96940 -12.91270 0.11089 10.36180 -2.45989 -2.43943 21.17220 -2.35355 -4.38606 2.62719 18.60710 -0.00000 -0.00000 0.00000 -95.78490 -61.29650 -75.29840 -42.77740 49.49610 -72.99380 14.03550 7.95927 -12.37270 17.22750 0.34977 -0.72172 74.17710 -9.42025 63.66660 15.63520 31.54080 96.28400 16.25090 11.48750 6.46494 14.94410 -7.31268 -16.90390 -20.37400 10.46120 59.22110 4.07713 17.01390 -0.99223 -2.17912 -35.14980 -76.42750 -24.55260 1.81885 17.93050 36.66610 29.80790 -25.00430 -30.58810 15.77670 6.36600 10.62480 -48.32600 19.06470 
11.89120 95.64350 8.18785 -4.63539 -12.73570 -10.73230 0.00994 10.40880 -2.40812 -2.57571 21.29840 -1.98737 -4.70914 2.14064 20.07820 -0.00000 -0.00000 0.00000 -95.73230 -62.13150 -74.48890 -43.46980 49.96120 -72.88670 13.95790 7.97209 -12.36080 16.38430 0.34634 -0.69650 74.62830 -9.55537 63.86310 15.82180 31.69590 96.43170 16.13380 11.45630 6.32775 13.80920 -8.64384 -17.72870 -20.31500 12.43070 58.99350 4.04708 17.65590 -1.01230 -3.13574 -36.48720 -77.44890 -24.74450 2.26150 18.96710 36.32630 30.67590 -24.72300 -31.77550 15.51990 6.55234 12.61190 -51.91140 21.06430 
11.18520 95.04440 7.45659 -3.60225 -13.48970 -8.59277 -0.11364 10.51240 -2.30569 -2.74482 21.51780 -1.50811 -5.10052 1.65296 21.64390 -0.00000 -0.00000 0.00000 -96.25770 -63.24650 -74.14970 -44.49430 50.58990 -72.51150 13.86780 7.98238 -12.38620 15.36670 0.37363 -0.48828 75.34760 -9.74963 64.23160 16.03780 31.87740 96.50190 15.96740 11.41970 6.18250 12.60310 -9.90982 -18.48160 -20.18350 14.34050 58.56290 4.05522 18.26930 -1.03950 -4.01714 -37.68960 -78.27220 -24.88730 2.77887 19.95270 35.78470 31.44130 -24.74030 -33.20580 16.02530 7.01800 16.03480 -56.49600 24.77560 
10.41620 94.43560 6.64378 -2.53396 -14.21270 -6.45222 -0.16012 10.65170 -2.16652 -2.94786 21.81080 -0.89964 -5.55130 1.26691 23.16100 -0.00000 -0.00000 0.00000 -97.14140 -64.49140 -74.09600 -45.77570 51.31440 -71.87770 13.79830 7.97921 -12.50180 14.29760 0.42575 -0.10754 76.25060 -10.00860 64.68050 16.19080 32.05620 96.55620 15.74800 11.38400 6.07421 11.41410 -11.00600 -19.26530 -19.97610 15.87190 57.94270 4.25186 18.95810 -1.11361 -4.79435 -38.73350 -78.90700 -24.89040 3.27034 20.79560 35.13060 32.38840 -24.64350 -34.08240 16.47470 7.35480 20.03420 -60.46920 29.05880 
